<svg id="Capa_1" enable-background="new 0 0 512 512" height="512" viewBox="0 0 512 512" width="512" xmlns="http://www.w3.org/2000/svg"><g><path d="m481.421 290.249h-78.171c-5.522 0-10 4.478-10 10v10.59h-25.983v-11.572c0-5.522-4.478-10-10-10h-347.267c-5.523 0-10 4.478-10 10v13.063c0 55.716 45.328 101.044 101.044 101.044h165.178c49.395 0 90.626-35.627 99.345-82.534h27.683v10.591c0 5.522 4.478 10 10 10h78.171c16.861 0 30.579-13.718 30.579-30.602 0-16.862-13.718-30.58-30.579-30.58zm-134.154 22.08c0 44.688-36.356 81.044-81.044 81.044h-165.179c-44.688 0-81.044-36.356-81.044-81.044v-3.063h327.267zm134.154 19.101h-68.171v-21.181h68.171c5.833 0 10.579 4.746 10.579 10.601 0 5.834-4.746 10.58-10.579 10.58z"/><path d="m208.505 272.571c.347.025 2.185.145 5.114.145 12.533 0 45.032-2.185 66.146-23.299 26.05-26.049 23.285-69.427 23.154-71.261-.353-4.963-4.302-8.912-9.265-9.265-1.835-.134-45.21-2.896-71.261 23.154-26.05 26.05-23.285 69.427-23.154 71.261.354 4.964 4.303 8.913 9.266 9.265zm28.031-66.383c13.358-13.358 34.333-16.569 46.37-17.258-.663 12.016-3.852 32.914-17.283 46.344-13.357 13.358-34.332 16.569-46.37 17.258.664-12.015 3.852-32.913 17.283-46.344z"/><path d="m97.406 272.77c8.42 0 14.961-1.228 16.479-1.538 3.924-.802 6.991-3.869 7.794-7.793.742-3.629 6.728-35.977-11.363-54.068-18.092-18.092-50.44-12.105-54.068-11.362-3.924.802-6.991 3.869-7.794 7.793-.742 3.629-6.728 35.977 11.363 54.068 10.525 10.525 25.875 12.9 37.589 12.9zm-30.25-56.059c9.006-.673 22.214-.001 29.017 6.802 6.806 6.805 7.48 20.022 6.803 29.016-9.004.676-22.213.001-29.017-6.802-6.806-6.805-7.48-20.023-6.803-29.016z"/><path d="m154.464 197.797c22.424 0 40.667-18.243 40.667-40.666 0-22.424-18.243-40.667-40.667-40.667s-40.667 18.243-40.667 40.667c.001 22.423 18.244 40.666 40.667 40.666zm0-61.333c11.396 0 20.667 9.271 20.667 20.667s-9.271 20.666-20.667 20.666-20.667-9.271-20.667-20.666 9.272-20.667 20.667-20.667z"/><path d="m246.682 154.302c15.349 0 27.837-12.488 27.837-27.838s-12.488-27.837-27.837-27.837-27.837 12.487-27.837 27.837 12.488 27.838 27.837 27.838zm0-35.675c4.322 0 7.837 3.516 7.837 7.837 0 4.322-3.516 7.838-7.837 7.838s-7.837-3.516-7.837-7.838c0-4.321 3.516-7.837 7.837-7.837z"/><path d="m149.313 236.249v15.121c0 5.522 4.477 10 10 10s10-4.478 10-10v-15.121c0-5.522-4.477-10-10-10s-10 4.478-10 10z"/></g></svg>