<svg id="Layer_1" enable-background="new 0 0 512 512" height="512" viewBox="0 0 512 512" width="512" xmlns="http://www.w3.org/2000/svg"><g id="XMLID_1146_"><g id="XMLID_1066_"><path id="XMLID_1887_" d="m502 20h-323.937c-5.522 0-10 4.477-10 10s4.478 10 10 10h67.937v58h-9.667c-5.522 0-10 4.477-10 10s4.478 10 10 10h9.667v44h-9.667c-5.522 0-10 4.477-10 10s4.478 10 10 10h9.667v44h-9.667c-5.522 0-10 4.477-10 10s4.478 10 10 10h9.667v44h-9.667c-5.522 0-10 4.477-10 10s4.478 10 10 10h9.667v44h-9.667c-5.522 0-10 4.477-10 10s4.478 10 10 10h9.667v44h-226v-378h68.063c5.522 0 10-4.477 10-10s-4.478-10-10-10h-78.063c-5.522 0-10 4.477-10 10v452c0 5.523 4.478 10 10 10h492c5.522 0 10-4.477 10-10v-452c0-5.523-4.478-10-10-10zm-236 354h9.667c5.522 0 10-4.477 10-10s-4.478-10-10-10h-9.667v-44h9.667c5.522 0 10-4.477 10-10s-4.478-10-10-10h-9.667v-44h9.667c5.522 0 10-4.477 10-10s-4.478-10-10-10h-9.667v-44h9.667c5.522 0 10-4.477 10-10s-4.478-10-10-10h-9.667v-44h9.667c5.522 0 10-4.477 10-10s-4.478-10-10-10h-9.667v-58h226v378h-226zm-246 64h226v34h-226zm472 34h-226v-34h226z"/><path id="XMLID_1956_" d="m462 87h-58.333c-5.522 0-10 4.477-10 10s4.478 10 10 10h58.333c5.522 0 10-4.477 10-10s-4.478-10-10-10z"/><path id="XMLID_1958_" d="m462 175h-58.333c-5.522 0-10 4.477-10 10s4.478 10 10 10h58.333c5.522 0 10-4.477 10-10s-4.478-10-10-10z"/><path id="XMLID_1964_" d="m462 263h-58.333c-5.522 0-10 4.477-10 10s4.478 10 10 10h58.333c5.522 0 10-4.477 10-10s-4.478-10-10-10z"/><path id="XMLID_1965_" d="m462 351h-58.333c-5.522 0-10 4.477-10 10s4.478 10 10 10h58.333c5.522 0 10-4.477 10-10s-4.478-10-10-10z"/><path id="XMLID_1967_" d="m196.333 351h-58.333c-5.522 0-10 4.477-10 10s4.478 10 10 10h58.333c5.522 0 10-4.477 10-10s-4.478-10-10-10z"/><path id="XMLID_1971_" d="m104 251c0-5.523-4.478-10-10-10h-44c-5.522 0-10 4.477-10 10v44c0 5.523 4.478 10 10 10h44c5.522 0 10-4.477 10-10zm-20 34h-24v-24h24z"/><path id="XMLID_2020_" d="m315.667 129h44c5.522 0 10-4.477 10-10v-44c0-5.523-4.478-10-10-10h-44c-5.522 0-10 4.477-10 10v44c0 5.523 4.478 10 10 10zm10-44h24v24h-24z"/><path id="XMLID_2042_" d="m315.667 217h44c5.522 0 10-4.477 10-10v-44c0-5.523-4.478-10-10-10h-44c-5.522 0-10 4.477-10 10v44c0 5.523 4.478 10 10 10zm10-44h24v24h-24z"/><path id="XMLID_2064_" d="m315.667 305h44c5.522 0 10-4.477 10-10v-44c0-5.523-4.478-10-10-10h-44c-5.522 0-10 4.477-10 10v44c0 5.523 4.478 10 10 10zm10-44h24v24h-24z"/><path id="XMLID_2104_" d="m94 329h-44c-5.522 0-10 4.477-10 10v44c0 5.523 4.478 10 10 10h44c5.522 0 10-4.477 10-10v-44c0-5.523-4.478-10-10-10zm-10 44h-24v-24h24z"/><path id="XMLID_2105_" d="m196.333 263h-58.333c-5.522 0-10 4.477-10 10s4.478 10 10 10h58.333c5.522 0 10-4.477 10-10s-4.478-10-10-10z"/><path id="XMLID_2106_" d="m196.333 175h-58.333c-5.522 0-10 4.477-10 10s4.478 10 10 10h58.333c5.522 0 10-4.477 10-10s-4.478-10-10-10z"/><path id="XMLID_2107_" d="m196.333 87h-58.333c-5.522 0-10 4.477-10 10s4.478 10 10 10h58.333c5.522 0 10-4.477 10-10s-4.478-10-10-10z"/><path id="XMLID_2108_" d="m86.929 76.067-20.653 20.652-9.205-9.206c-3.905-3.905-10.235-3.905-14.143 0-3.905 3.905-3.905 10.237 0 14.142l16.276 16.277c1.875 1.875 4.419 2.929 7.071 2.929s5.195-1.054 7.071-2.929l27.724-27.723c3.905-3.905 3.905-10.237 0-14.142s-10.234-3.905-14.141 0z"/><path id="XMLID_2109_" d="m101.071 164.067c-3.905-3.905-10.235-3.905-14.143 0l-20.652 20.652-9.205-9.206c-3.905-3.905-10.235-3.905-14.143 0-3.905 3.905-3.905 10.237 0 14.142l16.276 16.277c1.875 1.875 4.419 2.929 7.071 2.929s5.195-1.054 7.071-2.929l27.724-27.723c3.907-3.905 3.907-10.236.001-14.142z"/><path id="XMLID_2112_" d="m352.596 340.067-20.652 20.652-9.205-9.206c-3.905-3.905-10.235-3.905-14.143 0-3.905 3.905-3.905 10.237 0 14.142l16.276 16.277c1.875 1.875 4.419 2.929 7.071 2.929s5.195-1.054 7.071-2.929l27.724-27.723c3.905-3.905 3.905-10.237 0-14.142-3.904-3.904-10.234-3.905-14.142 0z"/><path id="XMLID_2114_" d="m133.06 40c2.641 0 5.21-1.07 7.07-2.93 1.87-1.86 2.93-4.44 2.93-7.07s-1.06-5.21-2.93-7.07c-1.86-1.86-4.44-2.93-7.07-2.93s-5.2 1.07-7.069 2.93c-1.86 1.86-2.931 4.44-2.931 7.07s1.07 5.21 2.931 7.07c1.859 1.86 4.439 2.93 7.069 2.93z"/></g></g></svg>