<svg id="Layer_1" enable-background="new 0 0 512 512" height="512" viewBox="0 0 512 512" width="512" xmlns="http://www.w3.org/2000/svg"><g id="XMLID_1855_"><g id="XMLID_1477_"><g id="XMLID_634_"><path id="XMLID_635_" d="m202 444c-2.63 0-5.21 1.069-7.07 2.93s-2.93 4.44-2.93 7.07 1.069 5.21 2.93 7.069c1.86 1.86 4.44 2.931 7.07 2.931s5.21-1.07 7.069-2.931c1.861-1.859 2.931-4.439 2.931-7.069s-1.07-5.21-2.931-7.07c-1.859-1.861-4.439-2.93-7.069-2.93z"/><path id="XMLID_636_" d="m202 58.75c2.63 0 5.21-1.07 7.069-2.931 1.861-1.859 2.931-4.439 2.931-7.069s-1.07-5.21-2.931-7.07c-1.859-1.86-4.439-2.93-7.069-2.93s-5.21 1.069-7.07 2.93-2.93 4.44-2.93 7.07 1.069 5.21 2.93 7.069c1.86 1.861 4.44 2.931 7.07 2.931z"/><path id="XMLID_637_" d="m209 153.5h88.499c5.522 0 10-4.478 10-10s-4.478-10-10-10h-88.499c-5.522 0-10 4.478-10 10s4.478 10 10 10z"/><path id="XMLID_638_" d="m209 193.5h55.999c5.522 0 10-4.478 10-10s-4.478-10-10-10h-55.999c-5.522 0-10 4.478-10 10s4.478 10 10 10z"/><path id="XMLID_641_" d="m137.501 127.5c-19.851 0-36 16.149-36 36s16.149 36 36 36 36-16.149 36-36-16.149-36-36-36zm0 52c-8.822 0-16-7.178-16-16s7.178-16 16-16 16 7.178 16 16-7.178 16-16 16z"/><path id="XMLID_645_" d="m209 257.5h88.499c5.522 0 10-4.478 10-10s-4.478-10-10-10h-88.499c-5.522 0-10 4.478-10 10s4.478 10 10 10z"/><path id="XMLID_753_" d="m209 297.5h55.999c5.522 0 10-4.478 10-10s-4.478-10-10-10h-55.999c-5.522 0-10 4.478-10 10s4.478 10 10 10z"/><path id="XMLID_761_" d="m137.501 231.5c-19.851 0-36 16.149-36 36s16.149 36 36 36 36-16.149 36-36-16.149-36-36-36zm0 52c-8.822 0-16-7.178-16-16s7.178-16 16-16 16 7.178 16 16-7.178 16-16 16z"/><path id="XMLID_836_" d="m209 361.5h88.499c5.522 0 10-4.478 10-10s-4.478-10-10-10h-88.499c-5.522 0-10 4.478-10 10s4.478 10 10 10z"/><path id="XMLID_886_" d="m209 401.5h55.999c5.522 0 10-4.478 10-10s-4.478-10-10-10h-55.999c-5.522 0-10 4.478-10 10s4.478 10 10 10z"/><path id="XMLID_934_" d="m137.501 335.5c-19.851 0-36 16.149-36 36s16.149 36 36 36 36-16.149 36-36-16.149-36-36-36zm0 52c-8.822 0-16-7.178-16-16s7.178-16 16-16 16 7.178 16 16-7.178 16-16 16z"/><path id="XMLID_937_" d="m434.763 382h-2.85c7.551-9.29 12.088-21.123 12.088-34v-19.131c0-24.934-16.991-45.965-40-52.149v-197.22c0-27.57-22.43-50-50-50h-107.198c-7.565-17.703-25.004-29.5-44.803-29.5-19.798 0-37.238 11.798-44.803 29.5h-107.197c-27.57 0-50 22.43-50 50v382.5c0 27.57 22.43 50 50 50h452c5.522 0 10-4.478 10-10v-42.763c0-42.589-34.648-77.237-77.237-77.237zm-10.763-53.131v19.131c0 18.748-15.252 34-34 34s-34-15.252-34-34v-19.131c0-18.748 15.252-34 34-34s34 15.252 34 34zm-40-249.369v195.71c-10.541 1.171-20.174 5.385-28 11.746v-199.456c0-5.522-4.478-10-10-10h-54v-20.75c0-2.51-.348-4.94-.987-7.25h62.987c16.542 0 30 13.458 30 30zm-219.631-30c4.606 0 8.616-3.146 9.713-7.62 3.156-12.883 14.637-21.88 27.918-21.88s24.761 8.997 27.917 21.88c1.096 4.474 5.106 7.62 9.713 7.62h25.12c3.998 0 7.25 3.252 7.25 7.25v20.75h-140v-20.75c0-3.998 3.252-7.25 7.25-7.25zm-144.369 412.5v-382.5c0-16.542 13.458-30 30-30h62.987c-.638 2.31-.987 4.74-.987 7.25v20.75h-54c-5.522 0-10 4.478-10 10v366.5c0 5.522 4.478 10 10 10h99c5.522 0 10-4.478 10-10s-4.478-10-10-10h-89v-346.5h268v285.072c-33.192 3.976-59.982 29.068-66.483 61.428h-22.517c-5.522 0-10 4.478-10 10s4.478 10 10 10h21v28h-218c-16.542 0-30-13.458-30-30zm472 30h-204v-32.763c0-31.56 25.677-57.237 57.237-57.237h34.763v19c0 5.522 4.478 10 10 10s10-4.478 10-10v-19h34.763c31.56 0 57.237 25.677 57.237 57.237z"/></g></g></g></svg>